<svg width="40" height="40" viewBox="0 0 40 40" fill="none" xmlns="http://www.w3.org/2000/svg">
<path d="M31.1114 13.5716H28.0425C28.7606 12.6209 29.0372 11.4601 28.8144 10.3322C28.5915 9.20427 27.8864 8.1968 26.8469 7.52081C25.8074 6.84483 24.5141 6.55276 23.2378 6.70579C21.9615 6.85883 20.8014 7.44509 20.0003 8.34178C19.1993 7.44509 18.0391 6.85883 16.7629 6.70579C15.4866 6.55276 14.1932 6.84483 13.1537 7.52081C12.1142 8.1968 11.4092 9.20427 11.1863 10.3322C10.9634 11.4601 11.24 12.6209 11.9581 13.5716H8.88921C8.30002 13.5721 7.73514 13.7804 7.31852 14.1509C6.9019 14.5214 6.66758 15.0237 6.66699 15.5477V19.4999C6.66758 20.0238 6.9019 20.5262 7.31852 20.8966C7.73514 21.2671 8.30002 21.4755 8.88921 21.476V31.3566C8.8898 31.8805 9.12412 32.3828 9.54074 32.7533C9.95736 33.1238 10.5222 33.3322 11.1114 33.3327H28.8892C29.4784 33.3322 30.0433 33.1238 30.4599 32.7533C30.8765 32.3828 31.1108 31.8805 31.1114 31.3566V21.476C31.7006 21.4755 32.2655 21.2671 32.6821 20.8966C33.0988 20.5262 33.3331 20.0238 33.3337 19.4999V15.5477C33.3331 15.0237 33.0988 14.5214 32.6821 14.1509C32.2655 13.7804 31.7006 13.5721 31.1114 13.5716ZM21.1114 11.1014C21.1114 10.6129 21.2743 10.1353 21.5796 9.72908C21.8848 9.32287 22.3186 9.00626 22.8262 8.8193C23.3338 8.63234 23.8923 8.58343 24.4311 8.67874C24.97 8.77405 25.4649 9.00931 25.8534 9.35476C26.2419 9.70022 26.5064 10.1404 26.6136 10.6195C26.7208 11.0987 26.6658 11.5953 26.4555 12.0467C26.2453 12.4981 25.8893 12.8838 25.4325 13.1553C24.9757 13.4267 24.4386 13.5716 23.8892 13.5716H21.1114V11.1014ZM16.1114 8.63128C16.8479 8.63206 17.5539 8.89256 18.0746 9.35563C18.5954 9.8187 18.8883 10.4465 18.8892 11.1014V13.5716H16.1114C15.3747 13.5716 14.6682 13.3113 14.1473 12.8481C13.6263 12.3848 13.3337 11.7565 13.3337 11.1014C13.3337 10.4463 13.6263 9.818 14.1473 9.35476C14.6682 8.89152 15.3747 8.63128 16.1114 8.63128ZM8.88921 15.5477H18.8892V19.4999H8.88921V15.5477ZM11.1114 21.476H18.8892V31.3566H11.1114V21.476ZM28.8903 31.3566H21.1114V21.476H28.8892L28.8903 31.3566ZM21.1114 19.4999V15.5477H31.1114L31.1125 19.4999H21.1114Z" fill="#E0AF02" stroke="#2C2B29"/>
<g clip-path="url(#clip0)">
<path d="M6.875 28.75H33.125C33.362 28.75 33.5671 28.8242 33.7402 28.9727C33.9134 29.1211 34 29.2969 34 29.5C34 29.7031 33.9134 29.8789 33.7402 30.0273C33.5671 30.1758 33.362 30.25 33.125 30.25H6.875C6.63802 30.25 6.43294 30.1758 6.25977 30.0273C6.08659 29.8789 6 29.7031 6 29.5C6 29.2969 6.08659 29.1211 6.25977 28.9727C6.43294 28.8242 6.63802 28.75 6.875 28.75Z" fill="#E0AF02"/>
<path d="M17.2901 10.4599L16.7598 10.9902L17.2901 10.4599C17.2651 10.4349 17.2579 10.4197 17.2559 10.4148C17.254 10.4105 17.25 10.3998 17.25 10.375C17.25 10.3502 17.254 10.3395 17.2559 10.3352C17.2579 10.3303 17.2651 10.3151 17.2901 10.2901L16.7598 9.75977L17.2901 10.2901C17.3151 10.2651 17.3303 10.2579 17.3352 10.2559C17.3395 10.254 17.3502 10.25 17.375 10.25H22.625C22.6498 10.25 22.6605 10.254 22.6648 10.2559C22.6697 10.2579 22.6849 10.2651 22.7099 10.2901C22.7349 10.3151 22.7421 10.3303 22.7441 10.3352C22.746 10.3395 22.75 10.3502 22.75 10.375C22.75 10.3998 22.746 10.4105 22.7441 10.4148C22.7421 10.4197 22.7349 10.4349 22.7099 10.4599C22.6849 10.4849 22.6697 10.4921 22.6648 10.4941C22.6605 10.496 22.6498 10.5 22.625 10.5C22.1818 10.5 21.788 10.6709 21.4794 10.9794C21.1709 11.288 21 11.6818 21 12.125C21 12.5682 21.1709 12.962 21.4794 13.2706C21.7732 13.5643 22.1442 13.7333 22.5615 13.7488C25.7098 14.2229 28.2605 15.5924 30.2512 17.8566C32.2462 20.1256 33.25 22.8672 33.25 26.125C33.25 26.1498 33.246 26.1604 33.2441 26.1648C33.2421 26.1697 33.2349 26.1849 33.2099 26.2099C33.1849 26.2349 33.1697 26.2421 33.1648 26.2441C33.1604 26.246 33.1498 26.25 33.125 26.25H6.875C6.85016 26.25 6.83955 26.246 6.83519 26.2441C6.83034 26.2421 6.81513 26.2349 6.79009 26.2099C6.76506 26.1849 6.75793 26.1697 6.75588 26.1648C6.75404 26.1605 6.75 26.1498 6.75 26.125C6.75 22.8672 7.75377 20.1256 9.74879 17.8566C11.7395 15.5924 14.2902 14.2229 17.4385 13.7488C17.8558 13.7333 18.2268 13.5643 18.5206 13.2706L17.9902 12.7402L18.5206 13.2706C18.8291 12.962 19 12.5682 19 12.125C19 11.6818 18.8291 11.288 18.5206 10.9794L17.9902 11.5098L18.5206 10.9794C18.212 10.6709 17.8182 10.5 17.375 10.5C17.3502 10.5 17.3395 10.496 17.3352 10.4941C17.3303 10.4921 17.3151 10.4849 17.2901 10.4599Z" stroke="#E0AF02" stroke-width="1.5"/>
</g>
<defs>
<clipPath id="clip0">
<rect width="28" height="21" fill="white" transform="translate(6 9.5)"/>
</clipPath>
</defs>
</svg>
