<svg width="62" height="48" viewBox="0 0 62 48" fill="none" xmlns="http://www.w3.org/2000/svg">
<path d="M50.6263 22.4297C44.4396 22.4297 39.4268 27.4425 39.4268 33.6292C39.4268 33.9148 39.4373 34.1898 39.4585 34.4753C39.7863 38.843 42.61 42.5128 46.523 44.0568V45.2624C46.3538 45.2307 46.1846 45.2095 46.0048 45.2095C44.7674 45.2095 43.7627 46.0979 43.7627 47.1872C43.7627 47.4727 43.8368 47.7477 43.9637 48.0015H46.5336H48.0564H48.2574V44.575V43.7713V44.575C49.0294 44.7442 49.8225 44.8288 50.6369 44.8288C51.6627 44.8288 52.6674 44.6913 53.6086 44.4269V45.2624C53.4394 45.2307 53.2702 45.2095 53.0904 45.2095C51.8531 45.2095 50.8484 46.0979 50.8484 47.1872C50.8484 47.4727 50.9224 47.7477 51.0493 48.0015H53.6192H55.1421H55.343V43.803C58.9387 42.1426 61.5086 38.6209 61.8153 34.4753C61.8364 34.2003 61.847 33.9148 61.847 33.6292C61.8153 27.4425 56.8025 22.4297 50.6263 22.4297Z" fill="#5FC2AE"/>
<path d="M18.0314 45.2623C17.8622 45.2623 17.7035 45.2835 17.5555 45.3152V43.8769C20.7176 43.8769 23.8797 43.8769 27.0418 43.8769C27.0206 43.8346 27.0101 43.7923 26.9889 43.7606C22.7058 36.3365 18.4227 28.9125 14.1396 21.4884C13.9386 21.1394 13.7377 20.801 13.5367 20.4414C13.505 20.4837 13.4839 20.5155 13.4733 20.5366C10.3641 25.9302 7.25483 31.3237 4.13503 36.7173C2.78135 39.065 1.41713 41.4234 0.063451 43.7712C0.0422998 43.8029 0.0211512 43.8241 0 43.8558C0 43.8664 0.0105536 43.8769 0.0105536 43.8769C0.0422804 43.8769 0.0740033 43.8769 0.10573 43.8769C3.39474 43.8769 6.68376 43.8769 9.96219 43.8769V47.8216H10.142H11.5379H13.8963C14.0126 47.589 14.0761 47.3457 14.0761 47.0813C14.0761 46.0767 13.156 45.2623 12.0244 45.2623C11.8552 45.2623 11.6966 45.2835 11.5485 45.3152V43.8769C13.0291 43.8769 14.5097 43.8769 15.9903 43.8769V47.8216H16.1701H17.566H19.9244C20.0407 47.589 20.1042 47.3457 20.1042 47.0813C20.0936 46.0767 19.1735 45.2623 18.0314 45.2623Z" fill="#E0AF02"/>
<path d="M45.1788 6.08139C44.6923 2.88756 42.0907 0.275376 38.643 0.0215618C35.5867 -0.211101 32.6361 1.56559 31.4834 4.61137C31.2401 5.25648 31.1238 5.95448 30.9546 6.57844C30.9334 6.45154 30.9017 6.26116 30.87 6.0708C30.246 1.77711 25.8466 -0.983111 21.7115 0.328263C17.9889 1.51273 15.969 5.2988 16.9631 9.22234C17.4601 11.2106 18.4331 12.9555 19.6281 14.5947C19.6704 14.6476 19.7127 14.7005 19.7445 14.7534C22.2403 18.0212 30.3729 24.779 30.7748 25.0751C30.9546 25.2021 31.0709 25.1492 31.219 25.0434C31.6209 24.7685 37.9133 19.6604 39.9333 17.5347C39.9861 17.4819 40.0285 17.429 40.0813 17.3761C41.8369 15.4514 43.4021 13.3891 44.4173 10.9673C45.0836 9.40212 45.4432 7.78406 45.1788 6.08139Z" fill="#E81A46"/>
<path d="M34.7293 25.3486C34.5495 25.3486 34.3803 25.3698 34.2111 25.4015V22.25L32.4873 23.5719V28.1406H32.6882H34.2111H36.781C36.9079 27.8973 36.9819 27.6224 36.9819 27.3263C36.9819 26.237 35.9772 25.3486 34.7293 25.3486Z" fill="#E81A46"/>
<path d="M27.7495 25.4029C27.5803 25.3711 27.4111 25.35 27.2313 25.35C25.994 25.35 24.9893 26.2383 24.9893 27.3276C24.9893 27.6132 25.0633 27.8881 25.1902 28.1419H27.7601H29.2829H29.4839V23.6262C29.1349 23.3723 28.4158 22.8224 27.7601 22.3359V25.4029H27.7495Z" fill="#E81A46"/>
<path d="M34.2446 10.1641C33.6417 10.1641 33.1553 10.6506 33.1553 11.2428C33.1553 11.8456 33.6417 12.3321 34.2446 12.3321C34.8474 12.3321 35.3338 11.8456 35.3338 11.2428C35.3233 10.6506 34.8368 10.1641 34.2446 10.1641Z" fill="white" fill-opacity="0.87"/>
<path d="M27.7494 10.1641C27.1466 10.1641 26.6602 10.6506 26.6602 11.2428C26.6602 11.8456 27.1466 12.3321 27.7494 12.3321C28.3522 12.3321 28.8387 11.8456 28.8387 11.2428C28.8281 10.6506 28.3417 10.1641 27.7494 10.1641Z" fill="white" fill-opacity="0.87"/>
<path d="M53.8627 30.3711C53.2599 30.3711 52.7734 30.8576 52.7734 31.4604C52.7734 32.0632 53.2599 32.5391 53.8627 32.5391C54.4655 32.5391 54.9414 32.0526 54.9414 31.4604C54.952 30.8576 54.4655 30.3711 53.8627 30.3711Z" fill="white" fill-opacity="0.87"/>
<path d="M47.3793 30.3711C46.7765 30.3711 46.29 30.8576 46.29 31.4604C46.29 32.0632 46.7765 32.5391 47.3793 32.5391C47.9821 32.5391 48.4686 32.0526 48.4686 31.4604C48.458 30.8576 47.9716 30.3711 47.3793 30.3711Z" fill="white" fill-opacity="0.87"/>
<path d="M16.7612 34.5195C16.1584 34.5195 15.6719 35.006 15.6719 35.6088C15.6719 36.2116 16.1584 36.6875 16.7612 36.6875C17.364 36.6875 17.8399 36.201 17.8399 35.6088C17.8505 35.006 17.364 34.5195 16.7612 34.5195Z" fill="white" fill-opacity="0.87"/>
<path d="M10.2797 34.5195C9.67694 34.5195 9.19043 35.006 9.19043 35.6088C9.19043 36.2116 9.67694 36.6875 10.2797 36.6875C10.8826 36.6875 11.369 36.201 11.369 35.6088C11.3585 35.006 10.872 34.5195 10.2797 34.5195Z" fill="white" fill-opacity="0.87"/>
<path d="M22.9053 16.9453L19.9365 19.9141L21.477 21.4545L24.4458 18.4858L22.9053 16.9453Z" fill="#E81A46"/>
<path d="M18.7396 21.1061L14.9707 24.875L16.5112 26.4155L20.2801 22.6466L18.7396 21.1061Z" fill="#E0AF02"/>
<path d="M19.4689 19.293C20.1775 19.293 20.7592 19.8746 20.7592 20.5832C20.7592 20.6043 20.7592 20.6255 20.7592 20.6466C20.7803 20.6466 20.8015 20.6466 20.8226 20.6466C21.5312 20.6466 22.1128 21.2283 22.1128 21.9369C22.1128 22.6454 21.5312 23.2271 20.8226 23.2271C20.114 23.2271 19.5324 22.6454 19.5324 21.9369C19.5324 21.9157 19.5324 21.8946 19.5324 21.8734C19.5113 21.8734 19.4901 21.8734 19.4689 21.8734C18.7604 21.8734 18.1787 21.2918 18.1787 20.5832C18.1787 19.8746 18.7604 19.293 19.4689 19.293Z" fill="#E81A46"/>
<path d="M18.3937 20.3711C19.1023 20.3711 19.684 20.9528 19.684 21.6613C19.684 21.6825 19.684 21.7036 19.684 21.7248C19.7051 21.7248 19.7263 21.7248 19.7474 21.7248C20.456 21.7248 21.0376 22.3064 21.0376 23.015C21.0376 23.7236 20.456 24.3052 19.7474 24.3052C19.0388 24.3052 18.4572 23.7236 18.4572 23.015C18.4572 22.9938 18.4572 22.9727 18.4572 22.9515C18.436 22.9515 18.4149 22.9515 18.3937 22.9515C17.6852 22.9515 17.1035 22.3699 17.1035 21.6613C17.1035 20.9422 17.6852 20.3711 18.3937 20.3711Z" fill="#E0AF02"/>
<path d="M44.6985 20.9848L43.1445 22.5117L46.0873 25.5065L47.6412 23.9796L44.6985 20.9848Z" fill="#5FC2AE"/>
<path d="M39.7856 15.9576L38.2314 17.4844L41.9668 21.2869L43.521 19.7601L39.7856 15.9576Z" fill="#E81A46"/>
<path d="M45.3345 20.5236C45.3239 21.2322 44.7423 21.8138 44.0337 21.8032C44.0125 21.8032 43.9914 21.8032 43.9702 21.8032C43.9702 21.8244 43.9702 21.8455 43.9702 21.8667C43.9597 22.5753 43.378 23.1569 42.6694 23.1464C41.9609 23.1358 41.3792 22.5541 41.3898 21.8456C41.4004 21.137 41.982 20.5553 42.6906 20.5659C42.7118 20.5659 42.7329 20.5659 42.7541 20.5659C42.7541 20.5448 42.7541 20.5236 42.7541 20.5025C42.7646 19.7939 43.3463 19.2122 44.0548 19.2228C44.774 19.2228 45.3451 19.8045 45.3345 20.5236Z" fill="#5FC2AE"/>
<path d="M44.2681 19.4338C44.2575 20.1423 43.6758 20.724 42.9673 20.7134C42.9461 20.7134 42.925 20.7134 42.9038 20.7134C42.9038 20.7346 42.9038 20.7557 42.9038 20.7769C42.8933 21.4854 42.3116 22.0671 41.6031 22.0565C40.8945 22.0459 40.3128 21.4643 40.3234 20.7557C40.334 20.0471 40.9156 19.4655 41.6242 19.4761C41.6453 19.4761 41.6665 19.4761 41.6876 19.4761C41.6876 19.4549 41.6876 19.4337 41.6876 19.4126C41.6982 18.704 42.2799 18.1224 42.9885 18.133C43.7076 18.1435 44.2787 18.7252 44.2681 19.4338Z" fill="#E81A46"/>
<path d="M21.693 34.5636L21.6738 36.7422L30.7054 36.8218L30.7246 34.6433L21.693 34.5636Z" fill="#E0AF02"/>
<path d="M31.0077 33.8757C31.5047 34.3833 31.5048 35.1977 30.9865 35.7053C30.976 35.7159 30.9548 35.737 30.9442 35.7476C30.9548 35.7581 30.976 35.7793 30.9865 35.7899C31.4836 36.2975 31.4836 37.1118 30.9654 37.6195C30.4578 38.1165 29.6434 38.1165 29.1358 37.5983C28.6388 37.0907 28.6388 36.2764 29.157 35.7687C29.1675 35.7582 29.1887 35.737 29.1993 35.7264C29.1887 35.7159 29.1675 35.6947 29.157 35.6841C28.6599 35.1765 28.6599 34.3622 29.1781 33.8546C29.6963 33.3575 30.5106 33.3681 31.0077 33.8757Z" fill="#E0AF02"/>
<path d="M32.4107 34.6613L32.3916 36.8398L41.6981 36.9215L41.7172 34.7429L32.4107 34.6613Z" fill="#5FC2AE"/>
<path d="M32.5301 33.8834C33.0272 34.391 33.0272 35.2053 32.509 35.713C32.4984 35.7236 32.4773 35.7447 32.4667 35.7553C32.4773 35.7659 32.4984 35.787 32.509 35.7976C33.0061 36.3052 33.0061 37.1195 32.4879 37.6272C31.9802 38.1242 31.1659 38.1242 30.6583 37.606C30.1612 37.0984 30.1612 36.2841 30.6794 35.7764C30.69 35.7659 30.7112 35.7447 30.7217 35.7341C30.7112 35.7236 30.69 35.7024 30.6794 35.6918C30.1824 35.1842 30.1824 34.3699 30.7006 33.8622C31.2082 33.3758 32.0331 33.3758 32.5301 33.8834Z" fill="#5FC2AE"/>
</svg>
