<svg width="40" height="40" viewBox="0 0 40 40" fill="none" xmlns="http://www.w3.org/2000/svg">
<path d="M25.3333 7H14.6667C13.1939 7 12 8.16406 12 9.6V30.4C12 31.8359 13.1939 33 14.6667 33H25.3333C26.8061 33 28 31.8359 28 30.4V9.6C28 8.16406 26.8061 7 25.3333 7Z" stroke="#E0AF02" stroke-width="1.5" stroke-linecap="round" stroke-linejoin="round"/>
<path d="M17.5881 17.108C17.5881 17.332 17.5341 17.542 17.4261 17.738C17.3221 17.934 17.1561 18.092 16.9281 18.212C16.7041 18.332 16.4201 18.392 16.0761 18.392H15.3741V20H14.5341V15.812H16.0761C16.4001 15.812 16.6761 15.868 16.9041 15.98C17.1321 16.092 17.3021 16.246 17.4141 16.442C17.5301 16.638 17.5881 16.86 17.5881 17.108ZM16.0401 17.732C16.2681 17.732 16.4381 17.676 16.5501 17.564C16.6661 17.452 16.7241 17.3 16.7241 17.108C16.7241 16.908 16.6681 16.754 16.5561 16.646C16.4441 16.534 16.2721 16.478 16.0401 16.478H15.3741V17.732H16.0401ZM20.7525 19.202H19.0845L18.8085 20H17.9265L19.4325 15.806H20.4105L21.9165 20H21.0285L20.7525 19.202ZM20.5305 18.548L19.9185 16.778L19.3065 18.548H20.5305ZM25.8094 15.812L24.3934 18.542V20H23.5534V18.542L22.1314 15.812H23.0794L23.9734 17.72L24.8614 15.812H25.8094Z" fill="#E0AF02"/>
<path d="M19.9414 27H20.0581" stroke="#E0AF02" stroke-width="1.5" stroke-linecap="round" stroke-linejoin="round"/>
</svg>
